<?xml version="1.0" standalone="no"?>
<!DOCTYPE svg PUBLIC "-//W3C//DTD SVG 20010904//EN"
 "http://www.w3.org/TR/2001/REC-SVG-20010904/DTD/svg10.dtd">
<svg version="1.0" xmlns="http://www.w3.org/2000/svg"
 width="1451.000000pt" height="572.000000pt" viewBox="0 0 1451.000000 572.000000"
 preserveAspectRatio="xMidYMid meet">

<g transform="translate(0.000000,572.000000) scale(0.100000,-0.100000)"
fill="#000000" stroke="none">
<path d="M6960 3834 l0 -436 -56 50 c-62 55 -143 102 -231 133 -84 30 -254 37
-364 15 -335 -68 -592 -377 -648 -780 -14 -97 -14 -308 -1 -401 57 -395 283
-685 607 -777 101 -28 285 -30 383 -4 95 26 195 82 267 151 l63 60 0 -87 0
-88 305 0 305 0 0 1300 0 1300 -315 0 -315 0 0 -436z m-245 -789 c59 -10 105
-37 158 -94 79 -84 109 -179 108 -341 -1 -209 -66 -342 -199 -407 -49 -24 -69
-28 -142 -28 -73 0 -93 4 -142 28 -134 66 -203 206 -202 412 1 201 69 341 199
407 40 21 123 37 160 32 11 -2 38 -6 60 -9z"/>
<path d="M1153 4158 c2 -7 203 -368 446 -802 l441 -788 0 -449 0 -449 345 0
345 0 0 451 0 452 426 766 c235 421 435 781 446 799 l20 32 -367 -2 -367 -3
-241 -472 c-133 -260 -244 -473 -247 -473 -3 0 -113 214 -245 475 l-240 475
-384 0 c-302 0 -382 -3 -378 -12z"/>
<path d="M9980 3594 c-100 -21 -216 -83 -299 -160 l-71 -66 0 96 0 96 -302 -2
-303 -3 -3 -942 -2 -943 320 0 319 0 3 583 c4 644 2 629 69 710 49 60 100 81
194 81 117 0 174 -33 226 -134 l24 -45 3 -597 3 -598 320 0 320 0 -3 678 c-4
662 -4 679 -26 757 -37 136 -95 239 -187 330 -89 89 -166 134 -276 160 -79 18
-241 18 -329 -1z"/>
<path d="M11725 3595 c-153 -34 -279 -107 -395 -232 -125 -133 -201 -292 -236
-493 -24 -140 -15 -381 19 -511 81 -311 279 -533 552 -621 88 -29 307 -36 395
-14 96 24 185 69 263 133 l70 56 -6 -149 c-6 -177 -20 -228 -82 -289 -59 -59
-124 -80 -250 -80 -88 0 -107 4 -162 29 -33 15 -74 41 -89 57 l-28 29 -324 0
-324 0 7 -32 c23 -108 99 -235 199 -333 129 -126 313 -214 526 -251 131 -22
400 -15 518 15 322 81 537 290 614 596 l23 90 0 980 0 980 -300 0 -300 0 -3
-85 -3 -85 -62 58 c-74 70 -192 131 -292 152 -86 18 -249 18 -330 0z m474
-556 c139 -60 212 -189 212 -375 1 -183 -64 -309 -192 -373 -192 -96 -402 -3
-470 209 -30 89 -30 241 -1 322 72 202 268 296 451 217z"/>
<path d="M3582 2878 c3 -670 4 -685 26 -763 70 -252 229 -423 448 -479 97 -25
217 -30 314 -12 118 21 214 71 306 158 l74 71 0 -92 0 -91 300 0 300 0 0 945
0 945 -317 -2 -318 -3 -5 -600 c-5 -656 -3 -630 -66 -704 -41 -49 -96 -71
-179 -71 -110 0 -181 43 -222 135 -17 37 -18 90 -23 640 l-5 600 -318 3 -318
2 3 -682z"/>
<path d="M7977 3553 c-4 -3 -7 -429 -7 -945 l0 -938 320 0 320 0 0 945 0 945
-313 0 c-173 0 -317 -3 -320 -7z"/>
</g>
</svg>
